<svg xmlns="http://www.w3.org/2000/svg" version="1.1" xmlns:xlink="http://www.w3.org/1999/xlink" xmlns:svgjs="http://svgjs.dev/svgjs" width="128" height="128" viewBox="0 0 128 128"><g transform="matrix(0.8046875,0,0,0.8046875,12.506335372881338,14.081523849158188)"><svg viewBox="0 0 59 58" data-background-color="#ffffff" preserveAspectRatio="xMidYMid meet" height="125" width="128" xmlns="http://www.w3.org/2000/svg" xmlns:xlink="http://www.w3.org/1999/xlink"><defs></defs><g id="tight-bounds" transform="matrix(1,0,0,1,-0.0036289999999894462,-0.21594043154566123)"><svg viewBox="0 0 59.00725799999999 58.431880863091315" height="58.431880863091315" width="59.00725799999999"><g><svg viewBox="0 0 59.00725799999999 58.431880863091315" height="58.431880863091315" width="59.00725799999999"><g><svg viewBox="0 0 59.00725799999999 58.431880863091315" height="58.431880863091315" width="59.00725799999999"><g><svg viewBox="0 0 59.00725799999999 58.431880863091315" height="58.431880863091315" width="59.00725799999999"><g><svg viewBox="0 0 59.00725799999999 58.431880863091315" height="58.431880863091315" width="59.00725799999999"><g><svg viewBox="0 0 59.00725799999999 58.431880863091315" height="58.431880863091315" width="59.00725799999999"><g><svg viewBox="0 0 59.00725799999999 58.431880863091315" height="58.431880863091315" width="59.00725799999999"><g><svg xmlns="http://www.w3.org/2000/svg" xmlns:xlink="http://www.w3.org/1999/xlink" version="1.1" x="0" y="0" viewBox="4.932 4 91.068 90.18" enable-background="new 0 0 100 100" xml:space="preserve" height="58.431880863091315" width="59.00725799999999" class="icon-icon-0" data-fill-palette-color="accent" id="icon-0"><path fill="#87c0cd" d="M91.329 87.359V35.071h4.491V28.25h-7.259L50.016 4l-37.53 24.25H4.932v6.821h4.491v52.289H5.47v6.82h3.953 81.907H96v-6.82H91.329zM50.018 10.062L80.013 28.25H20.917L50.018 10.062zM84.86 91.147H16.605v-3.215h8.443v-2.762h8.623v-3.116h34.485v3.116h8.981v2.762h7.723V91.147zM15.887 85.086V42.27h7.186v42.816H15.887zM36.721 52.879v-3.031h28.021v3.031H36.721zM64.563 55.152v23.872H51.63V55.152H64.563zM49.834 55.152v23.872H36.902V55.152H49.834zM85.219 85.464h-6.465V42.27h6.465V85.464zM87.555 39.618H12.833v-4.547h74.722V39.618z" data-fill-palette-color="accent"></path><g fill="#87c0cd" data-fill-palette-color="accent"><path fill="#87c0cd" d="M49.592 25.344c-1.709-0.101-3-0.804-3.838-1.76l0.822-1.055c0.653 0.737 1.675 1.424 3.016 1.575v-4.088c-1.709-0.47-3.486-1.039-3.486-3.101 0-1.742 1.458-2.966 3.486-3.083v-1.542h1.021v1.559c1.392 0.134 2.48 0.67 3.302 1.524l-0.838 1.022c-0.671-0.72-1.524-1.139-2.464-1.273v3.636c1.727 0.486 3.553 1.139 3.553 3.317 0 1.525-0.972 3.067-3.553 3.268v1.491h-1.021V25.344zM49.592 18.49v-3.418c-1.208 0.083-2.045 0.771-2.045 1.76C47.547 17.77 48.452 18.155 49.592 18.49zM50.613 20.3v3.804c1.592-0.168 2.111-1.123 2.111-1.91C52.725 21.105 51.787 20.652 50.613 20.3z" data-fill-palette-color="accent"></path></g></svg><g></g></g></svg></g></svg></g></svg></g></svg></g></svg></g></svg></g></svg><rect width="59.00725799999999" height="58.431880863091315" fill="none" stroke="none" visibility="hidden"></rect></g></svg></g></svg>