<svg xmlns="http://www.w3.org/2000/svg" version="1.1" xmlns:xlink="http://www.w3.org/1999/xlink" xmlns:svgjs="http://svgjs.dev/svgjs" width="1000" height="209" viewBox="0 0 1000 209"><g transform="matrix(1,0,0,1,-0.6060590965490746,-0.426828106406802)"><svg viewBox="0 0 396 83" data-background-color="#ffffff" preserveAspectRatio="xMidYMid meet" height="209" width="1000" xmlns="http://www.w3.org/2000/svg" xmlns:xlink="http://www.w3.org/1999/xlink"><defs></defs><g id="tight-bounds" transform="matrix(1,0,0,1,0.23999940223342264,0.1695058987165794)"><svg viewBox="0 0 395.52 82.66098820256687" height="82.66098820256687" width="395.52"><g><svg viewBox="0 0 395.52 82.66098820256687" height="82.66098820256687" width="395.52"><g><svg viewBox="0 0 528.3107613495604 110.41335358820068" height="82.66098820256687" width="395.52"><g transform="matrix(1,0,0,1,132.79076134956034,31.50942700869262)"><svg viewBox="0 0 395.52 47.39449957081544" height="47.39449957081544" width="395.52"><g><svg viewBox="0 0 395.52 47.39449957081544" height="47.39449957081544" width="395.52"><g><svg viewBox="0 0 395.52 47.39449957081544" height="47.39449957081544" width="395.52"><g transform="matrix(1,0,0,1,0,0)"><svg width="395.52" viewBox="2.450000047683716 -34.900001525878906 290.5299987792969 34.900001525878906" height="47.39449957081544" data-palette-color="#113f67"><g class="undefined-text-0" data-fill-palette-color="primary" id="text-0"><path d="M2.45 0L2.45-2.7 6.1-2.7 6.1-32.2 2.45-32.2 2.45-34.9 20.05-34.9Q25.1-34.9 27.73-32.5 30.35-30.1 30.35-25.45L30.35-25.45Q30.35-20.75 27.6-18.2 24.85-15.65 19.8-15.65L19.8-15.65 12.05-15.65 12.05-2.7 16.8-2.7 16.8 0 2.45 0ZM12.05-31.95L12.05-18.6 18.7-18.6Q21.35-18.6 22.78-20.1 24.2-21.6 24.2-24.1L24.2-24.1 24.2-26.45Q24.2-28.95 22.78-30.45 21.35-31.95 18.7-31.95L18.7-31.95 12.05-31.95ZM34.95 0L34.95-2.7 38.6-2.7 38.6-32.2 34.95-32.2 34.95-34.9 61.65-34.9 61.65-26.1 57.1-26.1 57.1-31.95 44.55-31.95 44.55-19.55 53.05-19.55 53.05-23.1 56.35-23.1 56.35-13.05 53.05-13.05 53.05-16.6 44.55-16.6 44.55-2.95 57.6-2.95 57.6-9.45 62.15-9.45 62.15 0 34.95 0ZM74.25 0L74.25-2.7 78.9-2.7 78.9-31.95 71.1-31.95 71.1-26.1 66.55-26.1 66.55-34.9 97.2-34.9 97.2-26.1 92.65-26.1 92.65-31.95 84.85-31.95 84.85-2.7 89.5-2.7 89.5 0 74.25 0ZM101.24 0L101.24-2.7 104.89-2.7 104.89-32.2 101.24-32.2 101.24-34.9 114.49-34.9 114.49-32.2 110.84-32.2 110.84-2.7 114.49-2.7 114.49 0 101.24 0ZM126.24 0L126.24-2.7 130.89-2.7 130.89-31.95 123.09-31.95 123.09-26.1 118.54-26.1 118.54-34.9 149.19-34.9 149.19-26.1 144.64-26.1 144.64-31.95 136.84-31.95 136.84-2.7 141.49-2.7 141.49 0 126.24 0Z" fill="#ffffff" data-fill-palette-color="primary"></path><path d="M151.64 0L151.64-2.7 155.29-2.7 155.29-32.2 151.64-32.2 151.64-34.9 168.94-34.9Q174.09-34.9 176.69-32.6 179.29-30.3 179.29-26.65L179.29-26.65Q179.29-24.8 178.69-23.38 178.09-21.95 177.12-20.95 176.14-19.95 174.89-19.3 173.64-18.65 172.29-18.4L172.29-18.4 172.29-18.15Q173.69-18 175.17-17.45 176.64-16.9 177.87-15.85 179.09-14.8 179.87-13.28 180.64-11.75 180.64-9.7L180.64-9.7Q180.64-5.15 177.89-2.58 175.14 0 170.24 0L170.24 0 151.64 0ZM161.24-16.55L161.24-2.9 168.54-2.9Q171.39-2.9 172.94-4.48 174.49-6.05 174.49-8.6L174.49-8.6 174.49-10.85Q174.49-13.4 172.94-14.98 171.39-16.55 168.54-16.55L168.54-16.55 161.24-16.55ZM161.24-32L161.24-19.5 167.69-19.5Q170.39-19.5 171.77-20.9 173.14-22.3 173.14-24.65L173.14-24.65 173.14-26.85Q173.14-29.2 171.77-30.6 170.39-32 167.69-32L167.69-32 161.24-32ZM184.19 0L184.19-2.7 186.79-2.7 197.89-34.9 203.59-34.9 214.69-2.7 217.29-2.7 217.29 0 204.24 0 204.24-2.7 208.54-2.7 205.74-11.05 193.09-11.05 190.29-2.7 194.59-2.7 194.59 0 184.19 0ZM199.29-30.2L193.89-13.9 204.94-13.9 199.54-30.2 199.29-30.2ZM220.49 0L220.49-2.7 224.13-2.7 224.13-32.2 220.49-32.2 220.49-34.9 231.08-34.9 247.94-8.25 248.19-8.25 248.19-32.2 244.53-32.2 244.53-34.9 255.09-34.9 255.09-32.2 251.44-32.2 251.44 0 246.38 0 227.63-29.65 227.38-29.65 227.38-2.7 231.03-2.7 231.03 0 220.49 0ZM259.68 0L259.68-2.7 263.33-2.7 263.33-32.2 259.68-32.2 259.68-34.9 272.93-34.9 272.93-32.2 269.28-32.2 269.28-16.6 269.53-16.6 274.63-22.25 283.78-32.2 279.98-32.2 279.98-34.9 291.33-34.9 291.33-32.2 287.88-32.2 277.83-21.5 289.73-2.7 292.98-2.7 292.98 0 279.43 0 279.43-2.7 282.88-2.7 273.78-17.4 269.28-12.65 269.28-2.7 272.93-2.7 272.93 0 259.68 0Z" fill="#ffffff" data-fill-palette-color="secondary"></path></g></svg></g></svg></g></svg></g></svg></g><g><svg viewBox="0 0 110.41335358820068 110.41335358820068" height="110.41335358820068" width="110.41335358820068"><g><svg></svg></g><g id="icon-0"><svg viewBox="0 0 110.41335358820068 110.41335358820068" height="110.41335358820068" width="110.41335358820068"><g><path d="M0 55.207c0-30.49 24.717-55.207 55.207-55.207 30.49 0 55.207 24.717 55.206 55.207 0 30.49-24.717 55.207-55.206 55.206-30.49 0-55.207-24.717-55.207-55.206zM55.207 106.139c28.129 0 50.933-22.803 50.932-50.932 0-28.129-22.803-50.933-50.932-50.933-28.129 0-50.933 22.803-50.933 50.933 0 28.129 22.803 50.933 50.933 50.932z" data-fill-palette-color="accent" fill="#ffffff" stroke="transparent"></path></g><g transform="matrix(1,0,0,1,27.564309646338558,27.833849279476365)"><svg viewBox="0 0 55.28473429552356 54.74565502924795" height="54.74565502924795" width="55.28473429552356"><g><svg xmlns="http://www.w3.org/2000/svg" xmlns:xlink="http://www.w3.org/1999/xlink" version="1.1" x="0" y="0" viewBox="4.932000160217285 4 91.06800079345703 90.18000030517578" enable-background="new 0 0 100 100" xml:space="preserve" height="54.74565502924795" width="55.28473429552356" class="icon-x-0" data-fill-palette-color="accent" id="x-0"><path fill="#ffffff" d="M91.329 87.359V35.071h4.491V28.25h-7.259L50.016 4l-37.53 24.25H4.932v6.821h4.491v52.289H5.47v6.82h3.953 81.907H96v-6.82H91.329zM50.018 10.062L80.013 28.25H20.917L50.018 10.062zM84.86 91.147H16.605v-3.215h8.443v-2.762h8.623v-3.116h34.485v3.116h8.981v2.762h7.723V91.147zM15.887 85.086V42.27h7.186v42.816H15.887zM36.721 52.879v-3.031h28.021v3.031H36.721zM64.563 55.152v23.872H51.63V55.152H64.563zM49.834 55.152v23.872H36.902V55.152H49.834zM85.219 85.464h-6.465V42.27h6.465V85.464zM87.555 39.618H12.833v-4.547h74.722V39.618z" data-fill-palette-color="accent"></path><g fill="#87c0cd" data-fill-palette-color="accent"><path fill="#ffffff" d="M49.592 25.344c-1.709-0.101-3-0.804-3.838-1.76l0.822-1.055c0.653 0.737 1.675 1.424 3.016 1.575v-4.088c-1.709-0.47-3.486-1.039-3.486-3.101 0-1.742 1.458-2.966 3.486-3.083v-1.542h1.021v1.559c1.392 0.134 2.48 0.67 3.302 1.524l-0.838 1.022c-0.671-0.72-1.524-1.139-2.464-1.273v3.636c1.727 0.486 3.553 1.139 3.553 3.317 0 1.525-0.972 3.067-3.553 3.268v1.491h-1.021V25.344zM49.592 18.49v-3.418c-1.208 0.083-2.045 0.771-2.045 1.76C47.547 17.77 48.452 18.155 49.592 18.49zM50.613 20.3v3.804c1.592-0.168 2.111-1.123 2.111-1.91C52.725 21.105 51.787 20.652 50.613 20.3z" data-fill-palette-color="accent"></path></g></svg></g></svg></g></svg></g></svg></g></svg></g></svg></g></svg><rect width="395.52" height="82.66098820256687" fill="none" stroke="none" visibility="hidden"></rect></g></svg></g></svg>