<svg xmlns="http://www.w3.org/2000/svg" x="0px" y="0px"
width="16" height="16"
viewBox="0 0 226 226"
style=" fill:#fff;"><g fill="none" fill-rule="nonzero" stroke="none" stroke-width="1" stroke-linecap="butt" stroke-linejoin="miter" stroke-miterlimit="10" stroke-dasharray="" stroke-dashoffset="0" font-family="none" font-weight="none" font-size="none" text-anchor="none" style="mix-blend-mode: normal"><path d="M0,226v-226h226v226z" fill="none"></path><g fill="#000"><path d="M120.46506,211.875c33.66694,0 64.76313,-16.837 83.19625,-45.04462c1.43369,-2.19644 1.53256,-5.00025 0.26131,-7.29556c-1.27125,-2.28825 -3.503,-3.7855 -6.328,-3.63012l-1.68087,0.09181c-46.9515,0 -85.15256,-38.03862 -85.15256,-84.79237c0,-16.39912 4.76719,-32.35331 13.77894,-46.15344c1.43369,-2.18938 1.53256,-4.99319 0.26838,-7.28144c-1.27125,-2.29531 -3.62306,-3.69369 -6.32094,-3.64425c-53.65381,1.05937 -97.30006,45.39069 -97.30006,98.83263c0,54.54369 44.53613,98.91738 99.27756,98.91738zM105.93044,29.47888c-6.10906,13.03031 -9.29425,27.22594 -9.29425,41.71819c0,50.50394 38.18694,92.29275 87.30663,98.20406c-16.05306,17.94581 -38.97794,28.34888 -63.47775,28.34888c-46.9515,0 -85.15256,-38.03862 -85.15256,-84.79237c0,-41.45687 30.67244,-76.52219 70.61794,-83.47875z"></path></g></g></svg>