<svg xmlns="http://www.w3.org/2000/svg" x="0px" y="0px"
width="16" height="16"
viewBox="0 0 172 172"
style=" fill:#fff;"><g fill="none" fill-rule="nonzero" stroke="none" stroke-width="1" stroke-linecap="butt" stroke-linejoin="miter" stroke-miterlimit="10" stroke-dasharray="" stroke-dashoffset="0" font-family="none" font-weight="none" font-size="none" text-anchor="none" style="mix-blend-mode: normal"><path d="M0,172v-172h172v172z" fill="none"></path><g fill="#fff"><path d="M166.625,80.625h-21.5c-2.967,0 -5.375,2.408 -5.375,5.375c0,2.967 2.408,5.375 5.375,5.375h21.5c2.967,0 5.375,-2.408 5.375,-5.375c0,-2.967 -2.408,-5.375 -5.375,-5.375z"></path><path d="M86,134.375c26.67075,0 48.375,-21.70425 48.375,-48.375c0,-26.67075 -21.70425,-48.375 -48.375,-48.375c-26.67075,0 -48.375,21.70425 -48.375,48.375c0,26.67075 21.70425,48.375 48.375,48.375zM86,48.375c20.7475,0 37.625,16.8775 37.625,37.625c0,20.7475 -16.8775,37.625 -37.625,37.625c-20.7475,0 -37.625,-16.8775 -37.625,-37.625c0,-20.7475 16.8775,-37.625 37.625,-37.625z"></path><path d="M86,32.25c2.967,0 5.375,-2.408 5.375,-5.375v-21.5c0,-2.967 -2.408,-5.375 -5.375,-5.375c-2.967,0 -5.375,2.408 -5.375,5.375v21.5c0,2.967 2.408,5.375 5.375,5.375z"></path><path d="M91.375,166.625v-21.5c0,-2.967 -2.408,-5.375 -5.375,-5.375c-2.967,0 -5.375,2.408 -5.375,5.375v21.5c0,2.967 2.408,5.375 5.375,5.375c2.967,0 5.375,-2.408 5.375,-5.375z"></path><path d="M5.375,91.375h21.5c2.967,0 5.375,-2.408 5.375,-5.375c0,-2.967 -2.408,-5.375 -5.375,-5.375h-21.5c-2.967,0 -5.375,2.408 -5.375,5.375c0,2.967 2.408,5.375 5.375,5.375z"></path><path d="M40.39313,47.99338c1.04812,1.04813 2.42413,1.57487 3.80013,1.57487c1.376,0 2.752,-0.52675 3.80013,-1.57487c2.10162,-2.10162 2.10162,-5.49862 0,-7.60025l-15.2005,-15.2005c-2.10163,-2.10163 -5.49862,-2.10163 -7.60025,0c-2.10163,2.10162 -2.10163,5.49862 0,7.60025z"></path><path d="M131.60688,124.00663c-2.10162,-2.10163 -5.49863,-2.10163 -7.60025,0c-2.10163,2.10162 -2.10162,5.49863 0,7.60025l15.2005,15.2005c1.04812,1.04812 2.42413,1.57487 3.80013,1.57487c1.376,0 2.752,-0.52675 3.80013,-1.57487c2.10162,-2.10162 2.10162,-5.49863 0,-7.60025z"></path><path d="M127.80675,49.56825c1.376,0 2.752,-0.52675 3.80013,-1.57487l15.2005,-15.2005c2.10162,-2.10162 2.10162,-5.49862 0,-7.60025c-2.10163,-2.10163 -5.49863,-2.10163 -7.60025,0l-15.2005,15.2005c-2.10162,2.10162 -2.10162,5.49862 0,7.60025c1.0535,1.04813 2.42413,1.57487 3.80013,1.57487z"></path><path d="M40.39313,124.00663l-15.2005,15.2005c-2.10162,2.10162 -2.10162,5.49862 0,7.60025c1.04813,1.04812 2.42413,1.57487 3.80013,1.57487c1.376,0 2.752,-0.52675 3.80012,-1.57487l15.2005,-15.2005c2.10162,-2.10162 2.10162,-5.49862 0,-7.60025c-2.10162,-2.10163 -5.504,-2.09625 -7.60025,0z"></path><path d="M61.8125,80.625c1.4835,0 2.6875,-1.204 2.6875,-2.6875c0,-7.40675 6.03075,-13.4375 13.4375,-13.4375c1.4835,0 2.6875,-1.204 2.6875,-2.6875c0,-1.4835 -1.204,-2.6875 -2.6875,-2.6875c-10.37375,0 -18.8125,8.43875 -18.8125,18.8125c0,1.4835 1.204,2.6875 2.6875,2.6875z"></path></g></g></svg>